<?xml version="1.0" encoding="UTF-8" standalone="no"?>
<!-- Created with Inkscape (http://www.inkscape.org/) -->

<svg
   version="1.1"
   id="svg1"
   width="1024"
   height="1024"
   viewBox="0 0 1024 1024"
   sodipodi:docname="unlock all2.png"
   inkscape:export-filename="unlock all2.svg"
   inkscape:export-xdpi="96"
   inkscape:export-ydpi="96"
   xmlns:inkscape="http://www.inkscape.org/namespaces/inkscape"
   xmlns:sodipodi="http://sodipodi.sourceforge.net/DTD/sodipodi-0.dtd"
   xmlns="http://www.w3.org/2000/svg"
   xmlns:svg="http://www.w3.org/2000/svg">
  <defs
     id="defs1" />
  <sodipodi:namedview
     id="namedview1"
     pagecolor="#505050"
     bordercolor="#ffffff"
     borderopacity="1"
     inkscape:showpageshadow="0"
     inkscape:pageopacity="0"
     inkscape:pagecheckerboard="1"
     inkscape:deskcolor="#505050"
     inkscape:export-bgcolor="#ffffff00" />
  <g
     inkscape:groupmode="layer"
     inkscape:label="Image"
     id="g1">
    <path
       style="fill:#000000;stroke-width:1.29994"
       d="m 302.10507,994.03319 c -44.50505,-5.43924 -83.63008,-23.52211 -111.89182,-51.71424 -21.63208,-21.57881 -35.40123,-48.04554 -42.97938,-82.61396 -2.2807,-10.40365 -2.42229,-19.33223 -2.42229,-152.74367 0,-153.76526 -0.24693,-148.0018 7.34478,-171.4387 18.59036,-57.39168 56.5355,-91.25139 116.80008,-104.22458 7.87621,-1.69552 21.61437,-2.23739 71.49704,-2.82003 61.74745,-0.7212 61.74745,-0.7212 61.35357,27.86927 -0.39387,28.59047 -0.39387,28.59047 3.95304,34.30661 4.86978,6.40371 15.26599,13.19049 25.03964,16.34626 11.26488,3.63724 43.21491,3.83416 67.07726,0.4134 24.72318,-3.54415 42.23971,-7.86891 52.74591,-13.02275 9.66435,-4.74088 23.51587,-18.93928 30.32062,-31.07995 7.73983,-13.80896 12.06438,-18.67333 23.45252,-26.38 10.99606,-7.44133 10.99606,-7.44133 30.49524,-7.46704 31.98513,-0.0421 51.91871,4.12483 75.10373,15.69986 36.0727,18.00915 62.49102,45.62704 74.67581,78.06661 2.41722,6.43538 5.68171,17.35639 7.25441,24.26892 2.85372,12.54303 2.85944,12.85841 2.85944,157.51219 0,144.944 0,144.944 -3.61961,158.82223 -5.33124,20.44086 -20.27737,50.56396 -32.12891,64.75404 -19.93138,23.86417 -31.24278,32.69863 -59.14755,46.19554 -20.0265,9.68642 -31.73877,13.80269 -49.60215,17.43292 -12.96307,2.63434 -16.22021,2.67971 -178.74261,2.48849 -91.04642,-0.10658 -167.29386,-0.40922 -169.43877,-0.67142 z M 479.01834,870.16388 c 4.22706,-2.11229 10.02402,-6.23524 12.88212,-9.16211 5.19653,-5.32161 5.19653,-5.32161 5.19653,-82.54648 0,-77.22484 0,-77.22484 3.12445,-78.00911 9.79079,-2.45761 26.12114,-19.31476 33.8222,-34.91325 6.97419,-14.12626 9.679,-26.04442 8.7417,-38.51831 -1.32012,-17.56858 -6.76943,-29.65053 -19.89661,-44.11375 -17.6115,-19.40392 -31.17338,-25.43487 -56.99044,-25.34355 -18.0486,0.0638 -27.11432,2.22453 -38.65917,9.21391 -13.17716,7.97762 -21.12156,15.40719 -27.61498,25.82546 -8.96271,14.38008 -10.13442,18.98087 -10.28975,40.40333 -0.13294,18.33487 -0.13294,18.33487 6.58392,31.84868 7.79819,15.68936 19.14868,28.65943 29.79458,34.0459 6.61269,3.3458 6.61269,3.3458 7.47261,47.30453 0.47296,24.17731 0.86087,58.68449 0.86202,76.68263 0.002,32.72392 0.002,32.72392 3.55758,36.94938 1.95552,2.324 7.0185,6.46372 11.25107,9.19937 10.15591,6.56408 18.65525,6.88344 30.16217,1.13337 z M 456.14869,664.87132 c -6.97563,-1.52308 -11.96915,-4.59952 -17.88759,-11.02024 -7.14523,-7.75168 -9.41128,-13.5756 -9.41128,-24.18768 0,-15.67851 9.42167,-29.41884 23.80974,-34.72355 5.84145,-2.15367 17.47655,-2.06239 25.08407,0.1968 19.99311,5.93731 30.45354,30.12185 20.9361,48.4043 -4.79559,9.21206 -10.36787,15.27352 -16.98621,18.4774 -6.16815,2.98595 -18.58464,4.37268 -25.54483,2.85297 z M 275.58891,865.86258 c 8.82082,-5.8752 10.89981,-15.99645 4.86238,-23.67179 -6.68051,-8.4929 -16.27151,-9.02112 -23.07628,-1.27091 -6.73142,7.66666 -6.89069,13.8716 -0.54947,21.4077 5.92721,7.0441 11.82632,8.1555 18.76337,3.535 z m 402.87086,-0.74307 c 7.87639,-4.14752 11.20952,-14.42379 7.19586,-22.18533 -6.68847,-12.93409 -27.80178,-9.16215 -30.16305,5.38872 -1.43948,8.87042 6.70223,19.16434 15.16751,19.17691 1.79858,0.002 5.30843,-1.06846 7.79968,-2.3803 z M 274.11829,557.48712 c 5.62515,-2.90887 9.13755,-8.66503 9.13755,-14.97468 0,-4.46943 -0.79793,-6.25203 -4.41981,-9.87391 -3.74095,-3.74094 -5.33515,-4.41981 -10.37906,-4.41981 -4.7476,0 -6.82241,0.77124 -10.20458,3.79319 -3.72388,3.32729 -4.24533,4.59297 -4.24533,10.30425 0,7.13308 3.03976,12.6125 8.57496,15.45717 4.12945,2.1222 7.01747,2.05056 11.53627,-0.28621 z m 407.71823,-2.33918 c 3.7254,-3.41406 4.79691,-5.49477 5.34813,-10.38508 0.65216,-5.78592 0.40824,-6.39668 -4.52497,-11.32987 -6.82311,-6.8231 -13.50128,-7.25827 -20.2641,-1.32041 -8.78056,7.70942 -9.0385,16.96986 -0.66887,24.01243 5.94938,5.00609 14.00833,4.61454 20.10981,-0.97707 z M 190.61625,536.99335 c 0.7012,-0.89372 2.22291,-4.4715 3.38157,-7.95061 3.2799,-9.84848 10.27419,-21.36446 19.50569,-32.1158 10.02999,-11.68127 14.07716,-14.92168 26.36607,-21.11028 5.60709,-2.82368 9.50977,-5.65725 9.91242,-7.19698 1.02,-3.90049 -0.41267,-9.29812 -2.46798,-9.29812 -5.37174,0 -20.72782,9.3988 -19.25353,11.78426 0.41309,0.66835 0.0901,1.2152 -0.71765,1.2152 -1.99816,0 -16.56621,10.49787 -24.63383,17.75135 -7.80737,7.01949 -18.23721,23.40774 -21.50101,33.78418 -2.33169,7.4131 -2.33169,7.4131 1.78058,11.08742 4.58383,4.09565 5.77179,4.41483 7.62767,2.04938 z m 246.68322,-56.38889 c -12.89753,-1.01829 -11.72956,1.62906 -11.80435,-26.75574 -0.0363,-13.79173 -0.71074,-32.68057 -1.49868,-41.97519 -1.43261,-16.8993 -1.43261,-16.8993 9.18151,-26.6489 16.99152,-15.60754 56.33932,-54.36279 84.46862,-83.19656 14.29878,-14.65689 37.52401,-38.05592 51.61162,-51.99784 14.08761,-13.94192 28.03988,-28.0497 31.00506,-31.3506 5.39125,-6.00162 5.39125,-6.00162 3.35757,-10.86888 -1.11851,-2.67698 -2.87106,-11.96825 -3.89454,-20.64726 -5.30273,-44.96669 2.00709,-79.15862 23.01366,-107.647145 8.18165,-11.095744 26.38334,-28.39675 39.10693,-37.171826 48.14861,-33.2065651 110.71358,-33.1731972 160.23666,0.08554 33.94952,22.799795 56.83741,54.580297 64.45965,89.504131 4.57958,20.98301 5.51021,36.56419 3.2305,54.08721 -2.23851,17.20664 -7.34067,36.55245 -11.22452,42.55976 -1.38666,2.14492 -4.42164,7.72042 -6.74438,12.39 -4.77341,9.59635 -16.94558,25.06242 -29.75213,37.80322 -14.19841,14.12557 -36.42668,26.35635 -59.27616,32.61586 -8.39736,2.30042 -13.90885,2.78306 -32.83997,2.87587 -15.81855,0.0775 -24.63517,-0.43639 -28.94017,-1.68694 -6.19109,-1.79846 -6.19109,-1.79846 -15.52292,5.86435 -5.81684,4.77649 -10.90619,10.35035 -13.51157,14.79791 -2.29887,3.92431 -5.74577,8.59755 -7.65979,10.38498 -3.37006,3.14718 -4.05986,3.25028 -21.83186,3.26303 -18.35184,0.0131 -18.35184,0.0131 -19.76919,7.85042 -1.78422,9.86577 -3.74741,14.69076 -10.28802,25.28504 -2.86912,4.64731 -7.61058,13.12946 -10.53659,18.84922 -5.32,10.39957 -5.32,10.39957 -13.70184,11.2226 -4.61,0.45265 -14.81657,0.90034 -22.68123,0.99485 -7.86468,0.0946 -14.93152,0.60161 -15.7041,1.1269 -1.67397,1.13814 -13.61587,18.80468 -16.46244,24.35409 -1.12399,2.19126 -2.41669,9.59511 -2.95056,16.89929 -0.52258,7.14971 -1.77092,14.60815 -2.77409,16.57432 -1.7395,3.40935 -2.26557,3.57485 -11.36273,3.57485 -5.24634,0 -12.65903,0.59176 -16.47266,1.31499 -21.15351,4.01167 -65.1493,7.0358 -82.46729,5.66849 z m 73.23254,-26.06775 c 15.73014,-0.81163 16.05954,-0.89139 17.3295,-4.19599 0.93096,-2.42251 0.71184,-6.10699 -0.78017,-13.11824 -1.1411,-5.36228 -2.19288,-13.06181 -2.33728,-17.11005 -0.26253,-7.36046 -0.26253,-7.36046 -5.47884,-3.24986 -6.94381,5.47188 -38.75721,35.74517 -40.22116,38.27402 -1.00639,1.73845 -0.0939,1.88014 7.14969,1.11015 4.56684,-0.48547 15.51906,-1.25499 24.33826,-1.71003 z m -51.43399,-11.0401 c 3.02518,-4.05642 14.85993,-15.80931 26.29946,-26.11754 30.54083,-27.52052 46.75088,-43.05394 101.47382,-97.23817 55.27628,-54.73211 69.63604,-68.35023 74.32566,-70.48696 2.92937,-1.33471 3.69193,-0.9709 8.28452,3.95261 2.84813,3.05336 5.05817,6.73262 5.05817,8.42085 0,2.21723 -12.78258,15.69489 -49.07297,51.7414 -26.99013,26.80877 -55.5077,54.98501 -63.37238,62.61388 -20.6098,19.9919 -30.50144,30.47222 -26.32391,27.89055 1.96617,-1.21508 3.57485,-1.83163 3.57485,-1.37012 0,0.46152 0.90409,0.0888 2.00908,-0.82828 1.105,-0.91705 1.73411,-2.38397 1.39801,-3.25978 -0.33608,-0.87582 1.10613,-3.23757 3.2049,-5.24831 3.55766,-3.40846 4.80486,-3.72039 18.42615,-4.60835 8.03563,-0.52385 19.31267,-0.99327 25.06012,-1.04315 10.44989,-0.0908 10.44989,-0.0908 14.56563,-6.91543 7.1936,-11.92842 10.6944,-21.05887 13.56291,-35.37344 4.09194,-20.41983 2.75911,-19.54929 29.93109,-19.54929 22.59182,0 22.59182,0 24.81138,-4.54981 1.22077,-2.5024 5.58443,-8.40842 9.69704,-13.12449 4.11262,-4.71609 10.68565,-12.4994 14.60676,-17.29626 5.64371,-6.90421 7.6753,-8.56169 9.7496,-7.95436 17.70269,5.18323 56.33176,7.06306 70.86749,3.44866 8.80487,-2.18938 25.33591,-9.77621 35.74851,-16.40655 11.3736,-7.24225 26.33261,-22.96325 34.02998,-35.7634 14.48842,-24.093 20.71672,-59.7922 15.35926,-88.03469 -2.50539,-13.20731 -8.39063,-30.61306 -13.75227,-40.67239 -9.61661,-18.042769 -30.13487,-37.488495 -50.58634,-47.942209 -21.30493,-10.889946 -37.2594,-14.882539 -59.14756,-14.801603 -28.57764,0.105695 -53.19836,9.624018 -75.32433,29.12033 -21.25588,18.729608 -31.03174,34.421572 -36.23647,58.165862 -2.18161,9.95265 -2.75116,17.04802 -2.77877,34.61759 -0.0308,19.60056 0.30963,23.19959 3.01102,31.83295 1.67515,5.35362 4.15659,11.91128 5.51428,14.5726 3.42814,6.71968 3.15712,8.04044 -2.40625,11.72661 -6.09014,4.03519 -40.9521,38.58227 -69.23797,68.61259 -27.63809,29.34261 -68.4207,70.25038 -92.057,92.33956 -10.24424,9.57368 -19.22196,18.52049 -19.95051,19.88178 -0.86483,1.61599 -0.99373,11.09655 -0.37131,27.31411 0.83203,21.67959 1.18191,24.5127 2.75066,22.27349 0.98856,-1.41104 4.27252,-5.88442 7.29769,-9.94084 z M 616.04207,330.62689 c 0,-2.53384 1.37882,-3.38766 2.94363,-1.82282 1.04142,1.0414 -0.32157,4.42272 -1.78276,4.42272 -0.63848,0 -1.16087,-1.16996 -1.16087,-2.5999 z m 3.89984,-3.24986 c 0,-0.35749 0.29248,-0.64998 0.64997,-0.64998 0.35749,0 0.64997,0.29249 0.64997,0.64998 0,0.35748 -0.29248,0.64997 -0.64997,0.64997 -0.35749,0 -0.64997,-0.29249 -0.64997,-0.64997 z m 7.79968,-7.79968 c 0,-0.35749 0.29248,-0.64998 0.64997,-0.64998 0.35748,0 0.64997,0.29249 0.64997,0.64998 0,0.35748 -0.29249,0.64998 -0.64997,0.64998 -0.35749,0 -0.64997,-0.2925 -0.64997,-0.64998 z M 755.78628,179.30143 c -14.84472,-3.67832 -24.19454,-12.16694 -32.34647,-29.36706 -3.48589,-7.35504 -4.00775,-9.88105 -4.02835,-19.49919 -0.0205,-9.60685 0.47383,-12.0679 3.78667,-18.84922 4.79903,-9.82351 17.80409,-23.078461 26.2836,-26.788641 13.07918,-5.722752 29.71489,-4.371733 42.05307,3.415215 7.19519,4.541079 16.77095,15.635126 20.4892,23.737836 2.8528,6.21683 3.42299,9.35251 3.4794,19.13478 0.0606,10.51576 -0.34941,12.58086 -4.05262,20.41008 -7.02163,14.845 -19.52632,24.83907 -35.25433,28.17622 -8.391,1.78039 -11.99542,1.71505 -20.41017,-0.37002 z m 22.02488,-26.73124 c 7.86904,-3.80935 12.4237,-11.56674 12.4237,-21.15983 0,-8.6322 -1.80066,-12.8429 -8.01375,-18.73946 -9.34038,-8.86453 -22.30647,-8.78345 -31.54696,0.19728 -7.10077,6.90115 -9.32776,13.67104 -7.16853,21.79183 4.65075,17.49141 19.33456,25.15751 34.30554,17.91018 z m 20.22338,21.41319 c 0,-0.35749 0.29248,-0.64997 0.64997,-0.64997 0.35748,0 0.64997,0.29248 0.64997,0.64997 0,0.35748 -0.29249,0.64997 -0.64997,0.64997 -0.35749,0 -0.64997,-0.29249 -0.64997,-0.64997 z M 537.61198,407.75702 c -0.47665,-0.47663 -1.25662,-0.47663 -1.73327,0 -0.47664,0.47667 -0.0868,0.86664 0.86664,0.86664 0.95329,0 1.34327,-0.38997 0.86663,-0.86664 z m 185.02567,20.11745 c -24.75924,-12.3798 -42.80287,-17.10597 -65.37925,-17.12482 -15.33135,-0.013 -15.33135,-0.013 -3.78756,-11.79394 6.34906,-6.47964 13.43306,-14.25404 15.74221,-17.27646 3.54283,-4.63719 5.5748,-5.9052 13.01245,-8.12023 11.71737,-3.48959 23.90422,-12.78526 33.14691,-25.28323 6.80973,-9.20814 11.47159,-12.68613 13.81049,-10.30334 1.43106,1.45791 3.07415,92.32334 1.68123,92.97397 -0.59222,0.27663 -4.29414,-1.10575 -8.22648,-3.07195 z M 213.08444,358.25075 c 0.0255,-69.216 1.20221,-94.90722 5.16768,-112.82034 6.5221,-29.46218 11.32297,-44.00636 21.43837,-64.9473 20.9108,-43.28959 56.58045,-81.61534 100.11302,-107.567796 11.9077,-7.098909 39.01847,-18.490442 54.77373,-23.015082 23.72046,-6.812109 37.79798,-8.490124 71.32105,-8.50135 33.27373,-0.0117 38.6625,0.681345 66.00956,8.482639 19.4251,5.541379 59.43524,23.587626 59.43524,26.807768 0,0.961419 -0.56603,1.748047 -1.25784,1.748047 -0.69181,0 -3.56557,3.071123 -6.38615,6.824716 -5.86219,7.801383 -13.32262,30.226048 -15.66954,47.099808 -1.56377,11.24305 -1.69296,40.72959 -0.22365,51.04612 0.53459,3.75361 0.78731,6.82473 0.56162,6.82473 -0.22571,0 -3.88933,-2.80338 -8.1414,-6.22974 -14.78704,-11.91554 -43.92788,-25.21476 -65.0854,-29.70351 -13.36591,-2.8357 -47.14924,-3.2122 -59.14121,-0.6591 -43.59038,9.28039 -82.7279,38.38113 -101.25955,75.29161 -5.77403,11.50045 -10.54319,26.26965 -13.88414,42.99667 -2.18203,10.9246 -2.61721,20.81888 -3.35989,76.38919 -0.85316,63.83903 -0.85316,63.83903 -5.52213,62.75341 -7.50703,-1.7455 -42.71857,-1.32898 -52.76697,0.62418 -9.09436,1.76774 -30.81909,9.37881 -39.92156,13.98619 -2.65265,1.34268 -5.1388,2.44125 -5.52477,2.44125 -0.38596,0 -0.6902,-31.44245 -0.67607,-69.87211 z m 63.58059,-163.5631 c 2.24295,-2.55458 5.6129,-7.08814 7.48879,-10.07458 1.87589,-2.98645 7.33699,-9.52474 12.13578,-14.52953 10.30907,-10.75164 11.98977,-13.64105 11.89578,-20.45106 -0.13502,-9.78375 -5.30032,-13.58703 -12.96959,-9.54969 -9.50621,5.00437 -29.70936,32.68118 -33.58308,46.00635 -2.10585,7.24383 -2.10585,7.24383 1.38148,10.24352 4.97965,4.2833 8.85583,3.8162 13.65084,-1.64501 z m 51.17852,-63.77652 c 2.28816,-1.16816 6.64553,-4.39674 9.68305,-7.17462 3.03752,-2.77789 9.76474,-7.75559 14.94937,-11.06156 14.51645,-9.25638 16.76576,-11.71981 15.7665,-17.267324 -1.17938,-6.547437 -2.80234,-9.170611 -5.67389,-9.170611 -3.62865,0 -21.26514,9.59359 -30.01759,16.328435 -12.64518,9.73024 -16.23147,17.33888 -12.18846,25.85888 1.20337,2.53591 2.44282,4.61074 2.75435,4.61074 0.31152,0 2.43852,-0.95577 4.72667,-2.12394 z m 71.75748,-43.764206 c 15.07685,-4.30727 32.44827,-7.387771 51.99784,-9.220831 15.59936,-1.462672 15.59936,-1.462672 15.2291,-5.972744 -0.20362,-2.480547 -1.29782,-5.925755 -2.43153,-7.656005 -2.0544,-3.135442 -2.11603,-3.143038 -18.47897,-2.279394 -9.02972,0.476583 -19.34256,1.445888 -22.91741,2.153997 -7.09157,1.404713 -36.04547,11.80186 -35.20532,12.642004 0.28552,0.285531 -4.4e-4,2.330737 -0.63544,4.544921 -0.79962,2.788075 -0.66317,4.631292 0.44378,5.995298 1.33434,1.644157 1.22257,1.828671 -0.67653,1.116954 -1.56476,-0.586432 -2.27491,-0.213194 -2.27491,1.195629 0,1.126521 0.73122,1.772438 1.62494,1.435385 0.89371,-0.337053 6.88971,-2.116898 13.32445,-3.955214 z"
       id="path1" />
  </g>
</svg>
